Coordinates
nRows=257
nColumns=2
inDegrees=yes
endheader
time	ankle_angle_r	
7.68448	 -0.514820	
7.71774	 -0.473022	
7.75101	 -0.503540	
7.78427	 -0.503540	
7.81754	 -0.429622	
7.85081	 -0.516326	
7.88407	 -0.500971	
7.91734	 -0.442505	
7.9506	 -0.503540	
7.98387	 -0.540738	
8.01714	 -0.467110	
8.0504	 -0.469970	
8.08367	 -0.512500	
8.11694	 -0.439259	
8.1502	 -0.491624	
8.18347	 -0.484842	
8.21673	 -0.434319	
8.25	 -0.491914	
8.28327	 -0.511339	
8.31653	 -0.431073	
8.3498	 -0.458197	
8.38306	 -0.500341	
8.41633	 -0.477139	
8.4496	 -0.514586	
8.48286	 -0.538367	
8.51613	 -0.488281	
8.5494	 -0.534058	
8.58266	 -0.512740	
8.61593	 -0.492978	
8.64919	 -0.523592	
8.68246	 -0.508430	
8.71573	 -0.503540	
8.74899	 -0.523882	
8.78226	 -0.493461	
8.81552	 -0.478299	
8.84879	 -0.503540	
8.88206	 -0.478493	
8.91532	 -0.473022	
8.94859	 -0.509203	
8.98185	 -0.473022	
9.01512	 -0.469477	
9.04839	 -0.503540	
9.08165	 -0.460655	
9.11492	 -0.479169	
9.14819	 -0.518799	
9.18145	 -0.455185	
9.21472	 -0.488281	
9.24798	 -0.518799	
9.28125	 -0.457764	
9.31452	 -0.473022	
9.34778	 -0.511975	
9.38105	 -0.452261	
9.41431	 -0.464781	
9.44758	 -0.518799	
9.48085	 -0.473022	
9.51411	 -0.465715	
9.54738	 -0.510944	
9.58065	 -0.480781	
9.61391	 -0.480684	
9.64718	 -0.511234	
9.68044	 -0.480491	
9.71371	 -0.473022	
9.74698	 -0.518799	
9.78024	 -0.481103	
9.81351	 -0.456668	
9.84677	 -0.527073	
9.88004	 -0.479911	
9.91331	 -0.481490	
9.94657	 -0.540752	
9.97984	 -0.488281	
10.0131	 -0.499028	
10.0464	 -0.534058	
10.0796	 -0.485638	
10.1129	 -0.515963	
10.1462	 -0.524913	
10.1794	 -0.479040	
10.2127	 -0.524720	
10.246	 -0.543492	
10.2792	 -0.518799	
10.3125	 -0.534058	
10.3458	 -0.539592	
10.379	 -0.498102	
10.4123	 -0.554658	
10.4456	 -0.534058	
10.4788	 -0.498392	
10.5121	 -0.534058	
10.5454	 -0.534058	
10.5786	 -0.513941	
10.6119	 -0.538819	
10.6452	 -0.549316	
10.6784	 -0.523367	
10.7117	 -0.544845	
10.745	 -0.527547	
10.7782	 -0.518799	
10.8115	 -0.552032	
10.8448	 -0.553401	
10.878	 -0.518799	
10.9113	 -0.553207	
10.9446	 -0.537852	
10.9778	 -0.515101	
11.0111	 -0.542115	
11.0444	 -0.584580	
11.0776	 -0.503540	
11.1109	 -0.534058	
11.1442	 -0.537272	
11.1774	 -0.491399	
11.2107	 -0.537078	
11.244	 -0.546392	
11.2772	 -0.488281	
11.3105	 -0.539519	
11.3437	 -0.538781	
11.377	 -0.460301	
11.4103	 -0.546876	
11.4435	 -0.470679	
11.4768	 -0.473022	
11.5101	 -0.529757	
11.5433	 -0.470969	
11.5766	 -0.440548	
11.6099	 -0.499819	
11.6431	 -0.473022	
11.6764	 -0.456097	
11.7097	 -0.503540	
11.7429	 -0.471549	
11.7762	 -0.456387	
11.8095	 -0.502260	
11.8427	 -0.458947	
11.876	 -0.456677	
11.9093	 -0.488281	
11.9425	 -0.456870	
11.9758	 -0.456170	
12.0091	 -0.472322	
12.0423	 -0.442505	
12.0756	 -0.441491	
12.1089	 -0.487871	
12.1421	 -0.442191	
12.1754	 -0.412421	
12.2087	 -0.427246	
12.2419	 -0.427246	
12.2752	 -0.396729	
12.3085	 -0.442505	
12.3417	 -0.412254	
12.375	 -0.411261	
12.4083	 -0.487361	
12.4415	 -0.412544	
12.4748	 -0.411987	
12.5081	 -0.472272	
12.5413	 -0.411141	
12.5746	 -0.439675	
12.6079	 -0.457764	
12.6411	 -0.427246	
12.6744	 -0.442505	
12.7077	 -0.471692	
12.7409	 -0.413414	
12.7742	 -0.454717	
12.8075	 -0.476263	
12.8407	 -0.457764	
12.874	 -0.484654	
12.9073	 -0.516889	
12.9405	 -0.486274	
12.9738	 -0.516695	
13.0071	 -0.534058	
13.0403	 -0.501243	
13.0736	 -0.534058	
13.1069	 -0.534058	
13.1401	 -0.475610	
13.1734	 -0.543949	
13.2067	 -0.534058	
13.2399	 -0.513045	
13.2732	 -0.521773	
13.3065	 -0.564575	
13.3397	 -0.515632	
13.373	 -0.539525	
13.4062	 -0.552677	
13.4395	 -0.506997	
13.4728	 -0.552870	
13.506	 -0.549316	
13.5393	 -0.511304	
13.5726	 -0.560731	
13.6058	 -0.545376	
13.6391	 -0.507577	
13.6724	 -0.545182	
13.7056	 -0.575603	
13.7389	 -0.503540	
13.7722	 -0.549316	
13.8054	 -0.549316	
13.8387	 -0.523416	
13.872	 -0.529343	
13.9052	 -0.549316	
13.9385	 -0.493189	
13.9718	 -0.544312	
14.005	 -0.529001	
14.0383	 -0.498342	
14.0716	 -0.544022	
14.1048	 -0.539449	
14.1381	 -0.514515	
14.1714	 -0.534058	
14.2046	 -0.524480	
14.2379	 -0.484578	
14.2712	 -0.524673	
14.3044	 -0.490936	
14.3377	 -0.479090	
14.371	 -0.534058	
14.4042	 -0.485545	
14.4375	 -0.461578	
14.4708	 -0.518799	
14.504	 -0.457764	
14.5373	 -0.479670	
14.5706	 -0.496795	
14.6038	 -0.450922	
14.6371	 -0.449443	
14.6704	 -0.488281	
14.7036	 -0.449636	
14.7369	 -0.442505	
14.7702	 -0.510865	
14.8034	 -0.449926	
14.8367	 -0.457541	
14.87	 -0.511155	
14.9032	 -0.442505	
14.9365	 -0.435054	
14.9698	 -0.504091	
15.003	 -0.450506	
15.0363	 -0.457764	
15.0696	 -0.496476	
15.1028	 -0.486957	
15.1361	 -0.459281	
15.1694	 -0.518799	
15.2026	 -0.473022	
15.2359	 -0.451183	
15.2692	 -0.503540	
15.3024	 -0.475507	
15.3357	 -0.448795	
15.369	 -0.524993	
15.4022	 -0.503540	
15.4355	 -0.473022	
15.4687	 -0.506991	
15.502	 -0.494088	
15.5353	 -0.490153	
15.5685	 -0.514767	
15.6018	 -0.482764	
15.6351	 -0.494704	
15.6683	 -0.524122	
15.7016	 -0.478249	
15.7349	 -0.574836	
15.7681	 -0.523832	
15.8014	 -0.482896	
15.8347	 -0.543738	
15.8679	 -0.538801	
15.9012	 -0.492928	
15.9345	 -0.543158	
15.9677	 -0.523252	
16.001	 -0.499183	
16.0343	 -0.564575	
16.0675	 -0.549316	
16.1008	 -0.492348	
16.1341	 -0.571894	
16.1673	 -0.545443	
16.2006	 -0.488281	
